<?xml version="1.0" encoding="utf-8"?>
<!-- Generator: Adobe Illustrator 26.2.1, SVG Export Plug-In . SVG Version: 6.00 Build 0)  -->
<svg version="1.1" id="Layer_1" xmlns="http://www.w3.org/2000/svg" xmlns:xlink="http://www.w3.org/1999/xlink" x="0px" y="0px"
	 viewBox="0 0 717.7 430.7" style="enable-background:new 0 0 717.7 430.7;" xml:space="preserve">
<style type="text/css">
	.st0{fill:#F2F2F2;}
	.st1{fill:#FFFFFF;}
	.st2{fill:#3F3D56;}
	.st3{fill:#CCCCCC;}
	.st4{fill:#FFB6B6;}
	.st5{fill:#2F2E41;}
	.st6{fill:#E6E6E6;}
	.st7{fill:#6C63FF;}
</style>
<path class="st0" d="M120.4,410c-1.5,0.1-2.9-1.1-2.9-2.7c0-0.8,0.3-1.6,0.9-2.2l0.2-0.8c0-0.1-0.1-0.1-0.1-0.2
	c-1.6-3.8-6-5.6-9.9-4c-1.8,0.8-3.3,2.2-4,4.1c-2.3,5.5-5.2,11-5.9,16.8c-0.3,2.6-0.2,5.2,0.4,7.7C93.8,417,91,404.4,91,391.5
	c0-3.2,0.2-6.4,0.5-9.6c0.3-2.6,0.7-5.2,1.2-7.8c2.9-14,9-27.2,17.9-38.3c4.3-2.4,7.8-6,10-10.4c0.8-1.6,1.4-3.3,1.7-5
	c-0.5,0.1-1.8-7.4-1.5-7.8c-0.7-1-1.9-1.5-2.6-2.5c-3.7-5-8.8-4.1-11.4,2.7c-5.7,2.9-5.7,7.6-2.2,12.2c2.2,2.9,2.5,6.8,4.5,9.9
	c-0.2,0.3-0.4,0.5-0.6,0.8c-3.7,4.7-6.8,9.7-9.5,15.1c0.6-6-0.1-12-2.3-17.6c-2.2-5.2-6.2-9.6-9.8-14.1c-4.3-5.4-13.1-3.1-13.8,3.8
	c0,0.1,0,0.1,0,0.2c0.5,0.3,1,0.6,1.6,1c1.7,1.2,2.2,3.5,1.1,5.3c-0.6,0.9-1.5,1.5-2.6,1.6l-0.1,0c0.2,1.9,0.5,3.8,1,5.7
	c-4.6,17.7,5.3,24.2,19.4,24.5c0.3,0.2,0.6,0.3,0.9,0.5c-2.7,7.6-4.4,15.5-5,23.5c-0.4,4.7-0.3,9.5,0.1,14.2l0-0.2
	c-1-5.3-3.8-10-8-13.4c-6.1-5-14.8-6.9-21.4-10.9c-2-1.3-4.7-0.7-6,1.3c-0.6,0.9-0.8,1.9-0.7,2.9c0,0.1,0,0.1,0,0.2
	c1,0.4,1.9,0.9,2.9,1.4c0.5,0.3,1,0.6,1.6,1c1.7,1.2,2.2,3.5,1.1,5.3c-0.6,0.9-1.5,1.5-2.6,1.6l-0.1,0c-0.1,0-0.1,0-0.2,0
	c1.7,4,4,7.7,7,10.9c2.9,15.5,15.2,16.9,28.3,12.4h0c1.4,6.3,3.5,12.4,6.2,18.2h22.3c0.1-0.2,0.2-0.5,0.2-0.8
	c-2.1,0.1-4.1,0-6.2-0.4c1.7-2,3.3-4.1,5-6.1c0,0,0.1-0.1,0.1-0.1c0.8-1,1.7-2.1,2.5-3.1l0,0C121.6,416.3,121.2,413.1,120.4,410
	L120.4,410z"/>
<path class="st0" d="M586.1,410c1.5,0.1,2.9-1.1,2.9-2.7c0-0.8-0.3-1.6-0.9-2.2l-0.2-0.8c0-0.1,0.1-0.1,0.1-0.2c1.6-3.8,6-5.6,9.9-4
	c1.8,0.8,3.3,2.2,4,4.1c2.3,5.5,5.2,11,5.9,16.8c0.3,2.6,0.2,5.2-0.4,7.7c5.3-11.7,8.1-24.3,8.1-37.1c0-3.2-0.2-6.4-0.5-9.6
	c-0.3-2.6-0.7-5.2-1.2-7.8c-2.9-14-9-27.2-17.9-38.3c-4.3-2.4-7.8-6-10-10.4c-0.8-1.6-1.4-3.3-1.7-5c0.5,0.1,1.8-7.4,1.5-7.8
	c0.7-1,1.9-1.5,2.6-2.5c3.7-5,8.8-4.1,11.4,2.7c5.7,2.9,5.7,7.6,2.2,12.2c-2.2,2.9-2.5,6.8-4.5,9.9c0.2,0.3,0.4,0.5,0.6,0.8
	c3.7,4.7,6.8,9.7,9.5,15.1c-0.6-6,0.1-12,2.3-17.6c2.2-5.2,6.2-9.6,9.8-14.1c4.3-5.4,13.1-3.1,13.8,3.8c0,0.1,0,0.1,0,0.2
	c-0.5,0.3-1,0.6-1.6,1c-1.7,1.2-2.2,3.5-1.1,5.3c0.6,0.9,1.5,1.5,2.6,1.6l0.1,0c-0.2,1.9-0.5,3.8-1,5.7c4.6,17.7-5.3,24.2-19.4,24.5
	c-0.3,0.2-0.6,0.3-0.9,0.5c2.7,7.6,4.4,15.5,5,23.5c0.4,4.7,0.3,9.5-0.1,14.2l0-0.2c1-5.3,3.8-10,8-13.4c6.1-5,14.8-6.9,21.4-10.9
	c2-1.3,4.7-0.7,6,1.3c0.6,0.9,0.8,1.9,0.7,2.9c0,0.1,0,0.1,0,0.2c-1,0.4-1.9,0.9-2.9,1.4c-0.5,0.3-1,0.6-1.6,1
	c-1.7,1.2-2.2,3.5-1.1,5.3c0.6,0.9,1.5,1.5,2.6,1.6l0.1,0c0.1,0,0.1,0,0.2,0c-1.7,4-4,7.7-7,10.9c-2.9,15.5-15.2,16.9-28.3,12.4h0
	c-1.4,6.3-3.5,12.4-6.2,18.2h-22.3c-0.1-0.2-0.2-0.5-0.2-0.8c2.1,0.1,4.1,0,6.2-0.4c-1.7-2-3.3-4.1-5-6.1c0,0-0.1-0.1-0.1-0.1
	c-0.8-1-1.7-2.1-2.5-3.1l0,0C584.9,416.3,585.3,413.1,586.1,410L586.1,410z"/>
<path class="st0" d="M146.1,429.4h36c6.2-20.7,0-69.7,8.1-89.7c15.6-38.4,35.4-78.9,72.5-97.6c15.8-8,33.1-11.1,50.7-11
	c24.4,0.2,49.4,6.8,72.4,15.4c9.4,3.5,18.7,7.4,27.9,11.4c34.9,15,69.4,31.3,106.9,35.7c47.5,5.6,103.3-15.7,116.3-61.4
	c9.9-35-7.9-71.4-26.6-102.7c-18.7-31.3-39.6-64.8-36.2-101c0-0.1,0-0.3,0-0.4c1.3-13,9.1-22.4,19.9-28.4h-47.2
	c-0.6,33.8,18.9,63.6,36.5,93.1c18.7,31.3,36.5,67.6,26.6,102.7c-13,45.7-120.3-7.9-167.8-13.5c-13.4-1.6,7.9,4-4.9,0
	c-20-6.3-22.3,51.4-41.8,42.9c-12.1-5.3-24.3-10.5-36.6-15.2c-5.1-1.9-10.3-3.7-15.6-5.4c0,0,0,0,0,0
	c-35.4-11.2-74.1-15.6-106.8,0.6c-0.2,0.1-0.5,0.2-0.7,0.3c-37.1,18.7-57,59.2-72.5,97.6C150.4,334.8,152.4,396,146.1,429.4z"/>
<circle class="st1" cx="346.2" cy="263.1" r="165.2"/>
<path class="st2" d="M345.7,429.4c-163.5,3.8-167.1-73.9-167.1-166.3c0-92.4,75.2-167.5,167.5-167.5s167.5,75.2,167.5,167.5
	C513.7,355.5,438.1,429.4,345.7,429.4z M346.2,100.2c-89.8,0-161.4,73.1-162.9,162.9c-1.4,83.5,87.3,187.8,162.9,162.9
	c40.5-44.6,155.1-92.7,162.9-162.9C519.1,173.9,436,100.2,346.2,100.2L346.2,100.2z"/>
<path class="st0" d="M323.7,349.1c-5.8,0-11.2-2.7-14.7-7.4l-45.1-60.1c-6.1-8.1-4.4-19.6,3.7-25.7c8.1-6.1,19.6-4.4,25.7,3.7
	l29.5,39.3l75.7-113.6c5.6-8.4,17-10.7,25.5-5.1c8.4,5.6,10.7,17,5.1,25.5L339,340.9c-3.3,5-8.8,8-14.8,8.2
	C324,349.1,323.8,349.1,323.7,349.1z"/>
<path class="st3" d="M0,429.6c0,0.7,0.5,1.2,1.2,1.2c0,0,0,0,0,0h715.3c0.7,0,1.2-0.5,1.2-1.2s-0.5-1.2-1.2-1.2H1.2
	C0.5,428.4,0,428.9,0,429.6C0,429.5,0,429.6,0,429.6z"/>
<polygon class="st4" points="451.7,417.9 442,417.9 437.4,380.6 451.7,380.6 "/>
<path class="st5" d="M452.1,428l-29.8,0v-0.4c0-6.4,5.2-11.6,11.6-11.6h0l5.4-4.1l10.1,4.1l2.6,0L452.1,428z"/>
<polygon class="st4" points="409.7,371.6 400.7,375.3 382.2,342.6 395.4,337.2 "/>
<path class="st5" d="M413.8,380.8l-27.5,11.4l-0.1-0.3c-2.4-5.9,0.4-12.7,6.3-15.1l0,0l3.4-5.9l10.9-0.1l2.4-1L413.8,380.8z"/>
<path class="st5" d="M462.8,205.6l-68.7,7.2l-9.2,30.9l-31.8,51.1c0,0,22.2,37.4,20.1,36.9s2.1,9.8,5,9.2s6,6,3.9,7.2
	s6.1,11.2,6.1,11.2l12.4-11.1c2.6-19.8-0.5-37.5-11.9-52.1l35.4-38.3l6.7-2.8l0,0l5.3,141.9l19.7,0.3c5.4-28,8.2-53.2,3.9-71.2
	c0,0,0.6-54,2.9-53.4s0.4-6.4,0.4-6.4s-2-6,0.5-8.5c2.5-2.5,0.9-17.1,0.9-17.1C468.7,226.9,467.5,215.5,462.8,205.6z"/>
<path class="st6" d="M410,91.5l19-4.9l8.9-12.2l21,2.6l4.5,16.7l15,8.7c0,0-8.3,87.6-6.3,92.4s9,4.4,3,10.6s-6.8,3.7-5.4,10.5
	s11.6,13.9,0,13.8s-81.6-1.1-79.6-9.1s2-6,5-11s5-2.2,4-9.6s0-12.4,0-16.4s3.4-40.3,3.4-40.3L410,91.5z"/>
<circle class="st4" cx="448.3" cy="49.8" r="22.3"/>
<path class="st5" d="M424.9,36.3c2,1.6,1.5,9.3,3.7,8s2.6-3.5,5.1-3.5c2,0.1,4,1,5.4,2.5c0.3,0.2,0.5,0.5,0.8,0.7
	c0.2-0.1,0.4-0.2,0.7-0.2c1.8-0.4,3.6-0.2,5.2,0.7c-1.5,0.1-2.8,0.7-4,1.6c0.5,0.5,1,1.1,1.5,1.6c4.3,4.2,13-0.3,18.9-1.3
	c-4.9,5.4-3.9,8.3-2.7,15.5l0,0.4c0.3-1.7,5.5-1.6,4.7,0.6c-1.1,2.2-2.5,4.2-4.1,6c7.2-5,13-11.9,14.3-20.2c0.3-1.7,0.8-3.5,0.3-5.2
	c-0.4-1.8-2-3-3.8-3.1c2.5-7.8-1.9-16.1-9.7-18.5c-2.8-0.9-5.7-0.9-8.5-0.1c-2.3,0.8-4.6,1.8-6.8,3c-2.2,1.1-4.8,1.6-7.2,1.2
	c-1.5-0.3-3.1-1.1-4.6-0.7c-1.8,0.5-2.5,2.4-3.2,4.2c1.3,0.5,2.5,1.3,3.3,2.5c-1.4-0.5-2.9-0.6-4.3-0.2c0,0-0.1,0-0.1,0
	C428.2,34.6,428.1,35.3,424.9,36.3z"/>
<path class="st2" d="M432.3,80.6c-11.4-0.9-21.8,7.8-26.6,18.2s-5.1,22.3-5.3,33.7l-0.7,35.6c-0.1,5.3-0.2,10.5-0.5,15.8
	c-0.1,5.1-0.8,10.2-1.9,15.2c-2.3,9.2-7.5,17.3-12.5,25.3c12.9,3.9,26.1,7,39.4,9.4c6.6-21.5,13.4-43.6,11.7-66
	c-0.9-11.9-4.1-23.4-5.3-35.3c-1.7-16.8,0.6-33.6,2.8-50.3"/>
<path class="st2" d="M460,82.6c11.3,1.8,19.4,12.8,21.5,24s-0.4,22.8-2.9,34c-2.6,11.6-5.2,23.2-7.8,34.8
	c-1.1,5.1-2.3,10.3-3.3,15.5c-1,5,3.1,11.5,3.1,16.6c0.1,9.5-1.8,17.2,1.3,26.2c-13.5,0.7-27,0.7-40.5-0.2
	c-1.3-22.4-2.6-45.5,4.3-66.9c3.7-11.3,9.5-21.8,13.5-33c5.6-15.9,7.4-32.8,9.2-49.6"/>
<path class="st4" d="M467.6,244.2c-1.7-3-0.8-6.9,2.2-8.8c0.3-0.2,0.6-0.3,0.9-0.4l-1.4-49.1l15.6-4l-6,57.2
	c0.8,2.8-0.3,5.8-2.8,7.4c-2.9,1.7-6.7,0.8-8.5-2.1v0C467.6,244.3,467.6,244.3,467.6,244.2z"/>
<path class="st2" d="M466.4,102.2c0,0,10.9-9.2,20.1,9.2s4,60.6,2.8,62.8s-2.1-0.9-1.4,5.1c0.6,4.9-2.8,4.3-1.6,5.3
	c3.2,2.7-5.8,3.1-1.2,5.5s-16.2,2.9-16.2,2.9s-2.5-1.8-0.8-8.6c1-3.8,3.4-5.2,0.8-7s2.7-7.2,2.7-8.4s-8.3-27.4-8.3-27.4L466.4,102.2
	z"/>
<path class="st7" d="M376.2,329.4c-5.8,0-11.2-2.7-14.7-7.4l-45.1-60.1c-6.1-8.1-4.4-19.6,3.7-25.7s19.6-4.4,25.7,3.7l0,0l29.5,39.3
	L451,165.6c5.6-8.4,17-10.7,25.5-5.1s10.7,17,5.1,25.5l-90.2,135.2c-3.3,5-8.8,8-14.8,8.2C376.5,329.4,376.3,329.4,376.2,329.4z"/>
<path class="st4" d="M410.5,235.7c1.9-2.9,1.1-6.9-1.8-8.9c-0.3-0.2-0.6-0.4-0.9-0.5l4.2-49l-15.4-4.8l2.8,57.5
	c-1,2.8,0,5.8,2.4,7.5c2.8,1.9,6.7,1.2,8.6-1.7v0C410.5,235.8,410.5,235.7,410.5,235.7z"/>
<path class="st2" d="M419.5,94c0,0-10.4-9.8-20.6,8.1s-7.4,60.3-6.2,62.6s2.1-0.8,1.1,5.2c-0.8,4.8,2.6,4.4,1.3,5.4
	c-3.4,2.6,5.6,3.4,0.9,5.5s16,3.8,16,3.8s2.6-1.7,1.2-8.5c-0.8-3.9-3.2-5.4-0.4-7s-2.3-7.4-2.2-8.5s9.8-26.9,9.8-26.9L419.5,94z"/>
</svg>
