<svg xmlns="http://www.w3.org/2000/svg" width="113.085" height="93.304" viewBox="0 0 113.085 93.304">
  <g id="dot" transform="translate(-200.669 -2151.013)">
    <ellipse id="Ellipse_4" data-name="Ellipse 4" cx="2.5" cy="2.625" rx="2.5" ry="2.625" transform="matrix(0.968, 0.25, -0.25, 0.968, 218.408, 2151.013)" fill="#fff"/>
    <ellipse id="Ellipse_5" data-name="Ellipse 5" cx="2.5" cy="2.625" rx="2.5" ry="2.625" transform="matrix(0.968, 0.25, -0.25, 0.968, 207.457, 2193.404)" fill="#fff"/>
    <ellipse id="Ellipse_6" data-name="Ellipse 6" cx="2.5" cy="2.625" rx="2.5" ry="2.625" transform="matrix(0.968, 0.25, -0.25, 0.968, 254.61, 2160.364)" fill="#fff"/>
    <ellipse id="Ellipse_7" data-name="Ellipse 7" cx="2.5" cy="2.625" rx="2.5" ry="2.625" transform="matrix(0.968, 0.25, -0.25, 0.968, 243.659, 2202.754)" fill="#fff"/>
    <ellipse id="Ellipse_8" data-name="Ellipse 8" cx="2.5" cy="2.625" rx="2.5" ry="2.625" transform="matrix(0.968, 0.25, -0.25, 0.968, 290.812, 2169.714)" fill="#fff"/>
    <ellipse id="Ellipse_9" data-name="Ellipse 9" cx="2.5" cy="2.625" rx="2.5" ry="2.625" transform="matrix(0.968, 0.25, -0.25, 0.968, 279.86, 2212.104)" fill="#fff"/>
    <ellipse id="Ellipse_10" data-name="Ellipse 10" cx="2.5" cy="2.625" rx="2.5" ry="2.625" transform="matrix(0.968, 0.25, -0.25, 0.968, 212.933, 2172.203)" fill="#fff"/>
    <ellipse id="Ellipse_11" data-name="Ellipse 11" cx="2.5" cy="2.625" rx="2.5" ry="2.625" transform="matrix(0.968, 0.25, -0.25, 0.968, 201.982, 2214.604)" fill="#fff"/>
    <ellipse id="Ellipse_12" data-name="Ellipse 12" cx="2.5" cy="2.625" rx="2.5" ry="2.625" transform="matrix(0.968, 0.25, -0.25, 0.968, 249.134, 2181.553)" fill="#fff"/>
    <ellipse id="Ellipse_13" data-name="Ellipse 13" cx="2.5" cy="2.625" rx="2.5" ry="2.625" transform="matrix(0.968, 0.25, -0.25, 0.968, 238.183, 2223.954)" fill="#fff"/>
    <ellipse id="Ellipse_14" data-name="Ellipse 14" cx="2.5" cy="2.625" rx="2.5" ry="2.625" transform="matrix(0.968, 0.25, -0.25, 0.968, 285.336, 2190.914)" fill="#fff"/>
    <ellipse id="Ellipse_15" data-name="Ellipse 15" cx="2.5" cy="2.625" rx="2.5" ry="2.625" transform="matrix(0.968, 0.25, -0.25, 0.968, 274.385, 2233.304)" fill="#fff"/>
    <ellipse id="Ellipse_16" data-name="Ellipse 16" cx="2.5" cy="2.625" rx="2.5" ry="2.625" transform="matrix(0.968, 0.25, -0.25, 0.968, 236.509, 2155.683)" fill="#fff"/>
    <ellipse id="Ellipse_17" data-name="Ellipse 17" cx="2.5" cy="2.625" rx="2.5" ry="2.625" transform="matrix(0.968, 0.25, -0.25, 0.968, 225.558, 2198.083)" fill="#fff"/>
    <ellipse id="Ellipse_18" data-name="Ellipse 18" cx="2.5" cy="2.625" rx="2.5" ry="2.625" transform="matrix(0.968, 0.25, -0.25, 0.968, 272.711, 2165.034)" fill="#fff"/>
    <ellipse id="Ellipse_19" data-name="Ellipse 19" cx="2.5" cy="2.625" rx="2.5" ry="2.625" transform="matrix(0.968, 0.25, -0.25, 0.968, 261.76, 2207.434)" fill="#fff"/>
    <ellipse id="Ellipse_20" data-name="Ellipse 20" cx="2.5" cy="2.625" rx="2.5" ry="2.625" transform="matrix(0.968, 0.25, -0.25, 0.968, 308.912, 2174.394)" fill="#fff"/>
    <ellipse id="Ellipse_21" data-name="Ellipse 21" cx="2.5" cy="2.625" rx="2.5" ry="2.625" transform="matrix(0.968, 0.25, -0.25, 0.968, 297.961, 2216.784)" fill="#fff"/>
    <ellipse id="Ellipse_22" data-name="Ellipse 22" cx="2.5" cy="2.625" rx="2.5" ry="2.625" transform="matrix(0.968, 0.25, -0.25, 0.968, 231.034, 2176.884)" fill="#fff"/>
    <ellipse id="Ellipse_23" data-name="Ellipse 23" cx="2.5" cy="2.625" rx="2.5" ry="2.625" transform="matrix(0.968, 0.25, -0.25, 0.968, 220.082, 2219.274)" fill="#fff"/>
    <ellipse id="Ellipse_24" data-name="Ellipse 24" cx="2.5" cy="2.625" rx="2.5" ry="2.625" transform="matrix(0.968, 0.25, -0.25, 0.968, 267.235, 2186.234)" fill="#fff"/>
    <ellipse id="Ellipse_25" data-name="Ellipse 25" cx="2.5" cy="2.625" rx="2.5" ry="2.625" transform="matrix(0.968, 0.25, -0.25, 0.968, 256.284, 2228.624)" fill="#fff"/>
    <ellipse id="Ellipse_26" data-name="Ellipse 26" cx="2.5" cy="2.625" rx="2.5" ry="2.625" transform="matrix(0.968, 0.25, -0.25, 0.968, 303.437, 2195.584)" fill="#fff"/>
    <ellipse id="Ellipse_27" data-name="Ellipse 27" cx="2.5" cy="2.625" rx="2.5" ry="2.625" transform="matrix(0.968, 0.25, -0.25, 0.968, 292.486, 2237.984)" fill="#fff"/>
  </g>
</svg>
