<?xml version="1.0" encoding="utf-8"?>
<!-- Generator: Adobe Illustrator 26.2.1, SVG Export Plug-In . SVG Version: 6.00 Build 0)  -->
<svg version="1.1" id="Layer_1" xmlns="http://www.w3.org/2000/svg" xmlns:xlink="http://www.w3.org/1999/xlink" x="0px" y="0px"
	 viewBox="0 0 750 500" style="enable-background:new 0 0 750 500;" xml:space="preserve">
<style type="text/css">
	.st0{fill:#EBEBEB;}
	.st1{fill:#6C63FF;}
	.st2{opacity:0.3;}
	.st3{fill:#00054E;}
	.st4{fill:#FFFFFF;}
	.st5{fill:#263238;}
	.st6{fill:#FFBE9D;}
	.st7{fill:#EB996E;}
	.st8{fill:#455A64;}
	.st9{font-family:'MyriadPro-Regular';}
	.st10{font-size:72px;}
</style>
<g id="freepik--background-simple--inject-2">
	<path class="st0" d="M578.5,117.8l-2.7-4.5C553,75.7,511.6,52.9,467.9,55.7c-5.6,0.4-11.2,1.1-16.7,2.3
		c-39.7,8.5-74.2,38.5-88.5,76.9c-8.4,22.6-10.8,48.6-26.7,66.6c-20.8,23.3-56.1,24.1-87.1,23.1s-66.3-0.1-87,23.3
		c-12.9,14.7-17.1,35.5-16,55.2c2.8,52,39,98.6,85.1,121.7s100.4,25.2,150.9,15c70.7-14.2,137.9-53.4,178.4-113.9
		S610.9,183.1,578.5,117.8z"/>
	<circle class="st0" cx="237.9" cy="148.1" r="45.4"/>
</g>
<g id="freepik--Character--inject-2">
	<path class="st1" d="M176.6,233.6h402.2c34.3,0,62,27.8,62,62v4.4c0,34.3-27.8,62-62,62H176.6c-34.3,0-62.1-27.8-62.1-62v-4.4
		C114.6,261.4,142.4,233.6,176.6,233.6z"/>
	<g class="st2">
		<path d="M176.6,233.6h402.2c34.3,0,62,27.8,62,62v4.4c0,34.3-27.8,62-62,62H176.6c-34.3,0-62.1-27.8-62.1-62v-4.4
			C114.6,261.4,142.4,233.6,176.6,233.6z"/>
	</g>
	<path class="st3" d="M178.8,223.1h397.8c35.5,0,64.2,28.8,64.2,64.2l0,0c0,35.5-28.8,64.2-64.2,64.2H178.8
		c-35.5,0-64.2-28.8-64.2-64.2l0,0C114.6,251.9,143.3,223.1,178.8,223.1z"/>
	<g class="st2">
		<path d="M497.6,223.1c0,0-2.9,0.1-4.4,0c-5,0-14,0-14,0l-6.5,11.9c1.5,3.1,3.4,6.7,6.8,7.4c1.7,0.2,3.5,0,5.1-0.6
			c4-1.2,7.8-3.2,11.2-5.8c2.1-1.5,3.6-3.6,4.4-6C500.9,227.4,499.9,224.2,497.6,223.1z"/>
	</g>
	<path class="st4" d="M192.5,304.4l2.7-6c4,3,8.8,4.6,13.7,4.6c6.5,0,9.2-2.3,9.2-5.4c0-9-24.7-3.1-24.7-18.5
		c0-6.7,5.4-12.4,16.8-12.4c5,0,10.2,1.3,13.9,3.7l-2.4,6c-3.5-2.1-7.4-3.2-11.5-3.3c-6.4,0-9,2.5-9,5.6c0,8.9,24.7,3.1,24.7,18.4
		c0,6.7-5.4,12.4-16.8,12.4C202.4,309.4,195.9,307.4,192.5,304.4z"/>
	<path class="st4" d="M263.4,277v31.7h-7.1v-4c-2.6,2.9-6.3,4.6-10.2,4.5c-8.1,0-13.7-4.5-13.7-14V277h7.4v17.1
		c0,5.8,2.7,8.5,7.4,8.5c5.2,0,8.7-3.2,8.7-9.6v-16H263.4z"/>
	<path class="st4" d="M306.8,292.9c0,9.9-6.8,16.3-16.1,16.3c-4.3,0-8-1.5-10.5-4.5v4.1h-7.1v-44.1h7.4v16.2
		c2.6-2.8,6.3-4.4,10.2-4.2C300,276.7,306.8,283.1,306.8,292.9z M299.3,292.9c0-6.1-4-9.9-9.4-9.9s-9.5,3.9-9.5,9.9s4.1,9.9,9.5,9.9
		S299.3,299,299.3,292.9L299.3,292.9z"/>
	<path class="st4" d="M310.3,305.6l2.9-5.6c3.3,2,7.1,3.1,11,3.1c4.7,0,6.7-1.3,6.7-3.5c0-6.1-19.6-0.4-19.6-13c0-6,5.4-9.9,14-9.9
		c4.2,0,9,1,11.9,2.7l-2.9,5.6c-2.8-1.6-5.9-2.4-9.1-2.4c-4.5,0-6.6,1.5-6.6,3.6c0,6.4,19.6,0.7,19.6,13.1c0,5.9-5.5,9.8-14.4,9.8
		C318.4,309.2,313.1,307.7,310.3,305.6z"/>
	<path class="st4" d="M341.9,292.9c0-9.5,7.1-16.2,17.2-16.2c6.2,0,11.1,2.5,13.5,7.4l-5.7,3.3c-1.7-2.8-4.7-4.5-7.9-4.4
		c-5.5,0-9.6,3.8-9.6,9.9s4.2,9.9,9.6,9.9c3.2,0.1,6.3-1.6,7.9-4.4l5.7,3.3c-2.4,4.8-7.4,7.4-13.5,7.4
		C349,309.2,341.9,302.4,341.9,292.9z"/>
	<path class="st4" d="M397.4,276.7v7.1c-0.6-0.1-1.1-0.2-1.7-0.2c-5.6,0-9.2,3.3-9.2,9.8v15.4H379V277h7.1v4.6
		C388.2,278.4,392.1,276.7,397.4,276.7z"/>
	<path class="st4" d="M402.7,267.4c0-2.5,2.1-4.5,4.6-4.5c0.1,0,0.1,0,0.2,0c2.7,0,4.8,1.8,4.8,4.3c-0.1,2.6-2.2,4.7-4.9,4.7
		C404.9,271.8,402.8,269.8,402.7,267.4z M403.7,277h7.4v31.7h-7.4V277z"/>
	<path class="st4" d="M454.6,292.9c0,9.9-6.8,16.3-16.1,16.3c-4.3,0-8-1.5-10.5-4.5v4.1h-7.1v-44.1h7.4v16.2
		c2.6-2.8,6.3-4.4,10.2-4.2C447.7,276.7,454.6,283.1,454.6,292.9z M447,292.9c0-6.1-4-9.9-9.4-9.9s-9.5,3.9-9.5,9.9s4.1,9.9,9.5,9.9
		S447,299,447,292.9L447,292.9z"/>
	<path class="st4" d="M491.4,295.3h-24.9c0.9,4.6,4.8,7.6,10.3,7.6c3.2,0.1,6.4-1.1,8.6-3.5l4,4.6c-2.9,3.4-7.3,5.2-12.8,5.2
		c-10.6,0-17.5-6.8-17.5-16.3s7-16.2,16.4-16.2c9.3,0,16,6.5,16,16.4C491.5,293.7,491.4,294.6,491.4,295.3z M466.4,290.4h18
		c-0.5-4.6-4.4-8-9-7.7C470.8,282.5,466.9,285.9,466.4,290.4L466.4,290.4z"/>
	<path class="st4" d="M532.2,309.6c0-2.5-1.7-4.6-3.8-4.6c-0.1,0-0.1,0-0.2,0c-2.1-0.1-3.8,1.9-3.9,4.4c0,0.1,0,0.1,0,0.2
		c0,2.5,1.7,4.6,3.7,4.6c0.1,0,0.1,0,0.2,0c2.2,0.1,3.9-1.9,4-4.5C532.1,309.7,532.1,309.6,532.2,309.6z M531.9,268.8h-7.3l1.2,27.8
		h4.9L531.9,268.8z"/>
	<g class="st2">
		<path d="M268.8,235.9c-1.5-3.7-3.9-10.4-7.1-12.8c0,0-20.2,0.3-20.3,0l9.4,33.6c3,2.4,4.5,5.7,5.5,8.8c1,3.1,1.8,6.5,4,8.8
			s6.6,3,8.6,0.4c2.2-2.9-0.2-7-0.3-10.6s2.2-6.9,3.2-10.4C273.5,247.8,271.1,241.6,268.8,235.9z"/>
	</g>
	<path class="st4" d="M587.7,307.5l-2.9-3.4c-1.7-1.9-2.6-4.4-2.6-6.9v-11.3c0-7.4-5.4-13.6-12.6-14.7v-4.4c0-1.1-0.9-2-2-2l0,0
		c-1.1,0-2,0.9-2,2v4.3c-7.5,0.9-13.2,7.2-13.2,14.8v10.8c0,2.4-0.8,4.7-2.2,6.5l-3.3,4.2h15.2c1.2,3.2,4.8,4.9,8.1,3.7
		c0.8-0.3,1.4-0.7,2-1.2c0.7-0.7,1.3-1.5,1.6-2.4L587.7,307.5z"/>
	<path class="st5" d="M420.5,119.4c1.4-3.6,2.8-7.2,2.8-11s-1.7-7.9-5-9.6c-3.1-1.5-6.8-0.6-10.1-1.7c-4-1.3-6.7-5.2-8.6-9.2
		s-3.5-8.2-6.5-11.1c-4.2-3.9-10.5-4.8-15.6-2.1c-3.6-2.4-7.8-3.6-12.1-3.8c-5.4,0-11.5,0.6-15.1,4.6c-2.8,3.1-4.6,7-8.1,9.2
		c-4.8,3.1-11.2,0.8-16.9,1.2c-1.2,0.1-2.5,0.4-3,1.5c-0.2,1,0,2,0.5,2.9l4.7,9.1c-2.4,1.2-5.3,1.2-7.7,0c0.5,6.1,3.1,11.8,7.3,16.2
		c-1-0.7-2.5,0.1-3,1.3c-0.4,1.2-0.3,2.5,0.2,3.7c4.3,14.2,19.4,22.2,33.6,17.9c1.2-0.4,2.4-0.8,3.5-1.3l31.8,1.4
		c1,2.5,3.1,4.3,5.6,4.9c3.5-2.7,4-4.2,4-4.2c2.2,1.6,0.5,0.8,2.2,1.6c4,1.8,9.7-0.6,10.5-5.1c0.2-1.8,0.9-3.5,2-4.9
		c1.2-1.3,3-1.9,4.5-2.7c2.5-1.4,4.5-3.5,5.6-6.1C425,122.2,422.4,121.3,420.5,119.4z"/>
	<path class="st6" d="M342.2,107.4c0.1-15.9,12.4-29,28.3-30.2l1.6-0.1c17.1-0.2,26.8,14.1,26.6,31.2l2.5,78.6l-38.9,2.8l-1.5-25.6
		c0,0-16.5-1.3-17.9-17.6C342.2,138.5,342.1,122.2,342.2,107.4z"/>
	<path class="st5" d="M350.4,119.7c0.1,1.3,1.2,2.2,2.4,2.2c1.2,0,2.3-1,2.3-2.2l0,0c-0.1-1.3-1.2-2.2-2.4-2.2
		C351.4,117.4,350.4,118.4,350.4,119.7L350.4,119.7z"/>
	<path class="st5" d="M347.2,113.6c0.3,0.3,2-1.2,4.5-1.3s4.4,0.9,4.7,0.6c0.1-0.2-0.2-0.7-1-1.2c-1.1-0.7-2.5-1-3.8-0.9
		s-2.5,0.6-3.5,1.4C347.2,112.9,347,113.5,347.2,113.6z"/>
	<path class="st5" d="M363.8,134c0-0.1-1.6-0.3-4.1-0.4c-0.6,0-1.3-0.1-1.4-0.5c-0.1-0.7,0-1.3,0.3-1.9c0.5-1.6,1-3.3,1.5-5
		c2.1-7.1,3.6-13,3.3-13.1s-2.2,5.6-4.4,12.8c-0.5,1.8-1,3.4-1.5,5c-0.3,0.8-0.4,1.7-0.1,2.5c0.2,0.4,0.6,0.8,1.1,0.9
		c0.4,0.1,0.7,0.1,1.1,0.1C362.2,134.2,363.8,134.1,363.8,134z"/>
	<path class="st5" d="M346.4,107.6c0.6,0.5,2.6-0.2,5.2-0.4s4.7,0.1,5.2-0.5c0.2-0.3-0.2-0.9-1.1-1.3c-1.3-0.6-2.8-0.8-4.3-0.7
		c-1.5,0.1-2.9,0.6-4.1,1.4C346.4,106.7,346.1,107.3,346.4,107.6z"/>
	<path class="st6" d="M397.1,120.5c0.3-0.1,11-4.1,11.4,7s-10.9,9.3-10.9,9S397.1,120.5,397.1,120.5z"/>
	<path class="st7" d="M399.9,132.2c0,0,0.2,0.1,0.5,0.3c0.5,0.2,1,0.2,1.5,0c1.2-0.5,2.1-2.4,2-4.4c0-1-0.2-1.9-0.7-2.8
		c-0.2-0.7-0.8-1.2-1.5-1.4c-0.5-0.1-0.9,0.1-1.1,0.6c-0.1,0.3-0.1,0.5-0.1,0.6s-0.2-0.2-0.2-0.6c0.1-0.3,0.2-0.5,0.4-0.7
		c0.3-0.2,0.7-0.4,1.1-0.3c0.9,0.1,1.7,0.8,2.1,1.7c0.5,0.9,0.8,2,0.8,3.1c0,2.3-1,4.4-2.6,4.9c-0.6,0.2-1.3,0.1-1.8-0.2
		C399.9,132.5,399.9,132.3,399.9,132.2z"/>
	<path class="st5" d="M400.9,94.9c-0.9-3.3-2.3-6.3-4.4-9c-5.9-8.1-19.2-11.9-26.8-11.2s-15.5,6.3-22.5,9.1
		c-4.6,1.8-8.1,6.1-6.4,9.4c-2.7,1.1-5.6,1.7-8.6,1.8c0,0-0.3,4.2,2,5.3l7.3,4.8c9.7,1.3,26.8-8.3,30.1-11.3
		c3.1-2.8,6.4-5.2,10.1-7.2c-3.1,8.1,7,6.3,6.7,9.5c-3.1,11.4,6.2,15.7,6.2,15.7l0.2,10c-0.2,2.6,0.9,4.5,3.5,4.4l0,0
		c0,0,2.8-3.8,3.2-6.9C402.6,113.1,402,100.9,400.9,94.9z"/>
	<path class="st7" d="M360.7,164c7.6-0.6,14.8-3.3,20.9-7.8c0,0-4.2,12.1-20.6,11.8L360.7,164z"/>
	<path class="st5" d="M374,118.2c0.1,1.3,1.2,2.2,2.4,2.2c1.2,0,2.2-1,2.3-2.2c0,0,0,0,0-0.1c-0.1-1.3-1.2-2.2-2.4-2.2
		C375,115.9,374,116.9,374,118.2L374,118.2z"/>
	<path class="st5" d="M371.3,112.4c0.3,0.3,2.3-0.9,5-0.8s4.7,1.4,5,1.2c0.1-0.1-0.2-0.7-1-1.3c-1.2-0.8-2.6-1.3-4-1.3
		c-1.4-0.1-2.8,0.3-4,1C371.4,111.7,371.1,112.2,371.3,112.4z"/>
	<path class="st5" d="M371,104.5c0.2,0.7,2.8,0.4,5.7,0.8s5.3,1.2,5.7,0.6c0.2-0.3-0.2-0.9-1.2-1.6c-2.6-1.7-5.8-2-8.7-1
		C371.5,103.6,370.9,104.2,371,104.5z"/>
	<path class="st7" d="M363.6,138.8c2.1-0.7,4.3-1.3,6.5-1.6l1.6-0.5l0,0c0.8,1.4,0.9,3.2,0.4,4.7c-0.7,1.1-1.8,1.9-3.1,2.1
		c-0.9,0.2-1.9,0.1-2.6-0.4C366.2,143.1,364.2,142.3,363.6,138.8"/>
	<path class="st5" d="M367.9,143.6c0.9-0.1,1.7-0.5,2.4-1c0.7-0.6,1.3-1.4,1.5-2.2c0.3-1.1,0.3-2.2,0-3.3l-0.1-0.2l0.3,0.2
		c-2.4,0.5-4.6,1-6.1,1.3c-0.8,0.2-1.7,0.3-2.6,0.4c0.8-0.3,1.6-0.6,2.5-0.7c1.5-0.4,3.7-0.9,6.1-1.4l0.2-0.1l0.1,0.2l0.1,0.2
		c0.4,1.2,0.4,2.4,0,3.6c-0.3,1-0.9,1.8-1.8,2.4c-0.6,0.4-1.2,0.6-1.9,0.7C368.2,143.6,367.9,143.6,367.9,143.6z"/>
	<path class="st8" d="M418.8,129.1c-0.2,0-0.5-0.1-0.7-0.2c-0.6-0.3-1.2-0.7-1.6-1.2c-0.6-0.9-1-1.9-1.1-2.9
		c-0.1-1.4-0.1-2.8,0.2-4.2c0.3-1.6,0.2-3.3-0.2-4.9c-0.3-0.9-0.8-1.6-1.5-2.2c-0.8-0.6-1.6-1.1-2.5-1.5c-1-0.4-1.9-0.9-2.8-1.5
		c-0.9-0.7-1.7-1.6-2.1-2.6c-0.9-2.1-0.8-4.5-1.3-6.7c-0.2-1.1-0.7-2.1-1.3-3.1c-0.7-0.9-1.6-1.4-2.7-1.6c-1-0.2-2.1-0.3-3.2-0.5
		s-2.1-0.7-2.8-1.5c-0.6-0.8-1.1-1.8-1.3-2.8c-0.2-0.9-0.4-1.9-0.6-2.8c-0.2-0.8-0.5-1.6-0.8-2.4c-0.4-0.7-0.8-1.3-1.3-1.9
		c-1.6-1.8-3.8-3-6.2-3.4c-0.9-0.1-1.8-0.1-2.6-0.1c0.9-0.2,1.8-0.3,2.7-0.1c2.5,0.3,4.7,1.5,6.4,3.3c0.6,0.6,1,1.3,1.4,2
		c0.4,0.8,0.7,1.6,0.9,2.5c0.2,0.9,0.4,1.8,0.6,2.7c0.2,0.9,0.6,1.8,1.2,2.6c0.7,0.7,1.6,1.2,2.6,1.3c1,0.2,2.1,0.2,3.2,0.5
		c1.2,0.2,2.3,0.9,3,1.8c0.7,1,1.2,2.1,1.4,3.3c0.5,2.3,0.4,4.7,1.3,6.7c0.4,1,1,1.8,1.9,2.4s1.8,1.1,2.7,1.5
		c0.9,0.4,1.8,0.9,2.6,1.5c0.8,0.6,1.3,1.5,1.6,2.4c0.4,1.7,0.5,3.4,0.2,5.1c-0.2,1.3-0.3,2.7-0.2,4.1c0.1,1,0.4,2,1,2.8
		C417.3,128.3,418,128.8,418.8,129.1z"/>
	<path class="st8" d="M328.8,89.3c0.2,0.1,0.4,0.2,0.5,0.3l1.4,1c1.7,1.2,3.6,2.1,5.5,2.8c2.9,1.1,6,1.1,9,0.2
		c1.7-0.6,3.2-1.7,4.3-3.1c1.1-1.6,2.1-3.2,2.9-5c0.9-1.8,2.1-3.5,3.6-4.8c1.4-1.2,3-2.1,4.8-2.8c3-1,6.2-1.3,9.3-0.7
		c2.1,0.4,4.1,1,6,1.9c0.7,0.3,1.2,0.6,1.5,0.8c0.2,0.1,0.4,0.2,0.5,0.3c-0.2,0-0.4-0.1-0.5-0.2c-0.4-0.2-0.9-0.4-1.6-0.7
		c-1.9-0.8-3.9-1.3-6-1.7c-3-0.5-6.1-0.2-9,0.8c-1.7,0.6-3.3,1.5-4.6,2.7c-1.4,1.3-2.6,2.9-3.4,4.6c-0.8,1.8-1.8,3.5-3,5.1
		c-1.2,1.5-2.8,2.6-4.6,3.2c-3,1-6.3,0.9-9.2-0.3c-2-0.7-3.8-1.8-5.5-3c-0.6-0.4-1-0.8-1.3-1C329.1,89.6,329,89.4,328.8,89.3z"/>
	<path class="st8" d="M324.6,104.1c0.1-0.1,0.8,0.6,2.2,1.5c1.8,1.1,3.8,1.9,5.9,2.4s4.2,0.6,6.3,0.4c1.6-0.2,2.6-0.4,2.6-0.4
		s-0.2,0.1-0.7,0.3c-0.6,0.2-1.3,0.3-1.9,0.4c-2.2,0.3-4.4,0.3-6.5-0.2s-4.1-1.4-5.9-2.6c-0.5-0.4-1.1-0.8-1.5-1.2
		C324.7,104.3,324.6,104.2,324.6,104.1z"/>
	<path class="st8" d="M334,113.5c0.1-0.1,1.8,0.6,4,0.9s4,0.3,4.1,0.4C339.3,115.4,336.5,114.9,334,113.5L334,113.5z"/>
	<path class="st8" d="M361.4,173.6l-32.1,8.8l-34.6,25l9.2,15.8l163.3,0.3c0,0-6-21.8-7.9-28.5c-3-10.1-7-13-10.6-16.7
		c-1.7-1.5-3.7-2.7-5.8-3.4c-6.5-1.4-36.4-8.1-42.2-8c0,0-6.7,13.9-20.8,13.7S361.4,173.6,361.4,173.6z"/>
	<path class="st5" d="M427.5,199.2c0.1,0,0.4-1.3,1.4-3.3c1.3-2.6,2.9-4.9,5-6.9c2-2,4.2-3.9,6.5-5.6c1-0.7,1.9-1.4,2.8-2.3
		c-1.1,0.5-2.1,1.2-3,1.9c-2.4,1.6-4.6,3.5-6.7,5.6s-3.7,4.5-4.9,7.2c-0.4,0.8-0.6,1.6-0.8,2.5C427.6,198.5,427.5,198.9,427.5,199.2
		z"/>
	<path class="st5" d="M330,216.5c0.1-1.1,0.2-2.3,0.1-3.4c0-2.1-0.1-5-0.4-8.2s-0.6-6.1-0.9-8.1c-0.1-1.1-0.3-2.2-0.6-3.3
		c0,1.1,0.1,2.3,0.2,3.4c0.2,2.3,0.4,5.1,0.7,8.1s0.4,5.9,0.5,8.1C329.7,214.3,329.8,215.4,330,216.5z"/>
	<g class="st2">
		<path d="M320.4,220.7c2.6-0.8,5.3-1.8,7.3-3.7s3-5,1.8-7.5c4,8.4,12.5,13.8,21.9,13.6l-38.7,0.5
			C315.1,222.2,317.7,221.3,320.4,220.7z"/>
	</g>
	<path class="st6" d="M503.1,223.4c0,0-3.9-5.3-5.9-6.3s-4.6-1-5.8,0.1l-1.2,1.1c0,0-6.1-2.7-9-0.6c0,0-5.8-2.7-8.6,0.4
		c0,0-4.5-2.9-6.4-0.4s-1.7,6.8-0.8,9s2.6,9.7,4,9.9c0,0,3.6,0.4,4-1.6s0.7-2.9,0.7-2.9s1.4,6.8,3,7.1s4.8,0.2,4.9-2.8
		c0,0,1.5,2.2,3,1.6s3.3-1.8,3.2-3.6s-0.2-3.7-0.2-3.7s0.8,2.7,2.2,2.1s2.7-0.5,3.5-2.7s2.6-6.6,2.6-6.6L503.1,223.4z"/>
	<path class="st7" d="M488.2,230.6c-0.2-0.7-0.4-1.3-0.6-1.9c-0.8-3.1-0.2-6.5,1.7-9.1c0.7-1,1.3-1.5,1.2-1.6s-0.7,0.4-1.6,1.3
		c-2.2,2.6-2.9,6.2-1.8,9.4C487.4,229.4,487.7,230,488.2,230.6z"/>
	<path class="st7" d="M480.9,217.6c-0.4,0.8-0.7,1.8-0.8,2.7c-0.9,4.5-0.5,9.1,0.9,13.4c0.2,0.9,0.6,1.8,1.1,2.6
		c0.2-0.1-1.5-4-1.9-9.2S481.1,217.6,480.9,217.6z"/>
	<path class="st7" d="M472.5,218.1c-0.4,2.4-0.5,4.8-0.1,7.2c0.2,2.4,0.8,4.8,1.7,7c0.2,0-0.7-3.1-1.1-7.1S472.7,218.1,472.5,218.1z
		"/>
	<path class="st6" d="M448.6,219.6c0.3-0.6,0.9-1.1,1.5-1.2c1.6-0.4,3.2,0.1,4.4,1.2c1.3,1.2,2.4,2.5,3.2,4l-8.6-0.1
		C449.2,222.1,448.1,220.8,448.6,219.6z"/>
	<path class="st6" d="M229.6,225.8c0.5-5.4,3.5-10.2,8.1-13l0,0c3.6-2.1,8-2.6,12-1.2l16.7,5.8c0.9,1,28.4-9.6,28.4-9.6l9.2,15.8
		l-52.6-0.1c2.9,3.3,6,6.4,9.2,9.4l3.6,11.9l-0.4,10.7c-1.9,0.9-4.7-2.4-4.7-2.4l-1.6,3l0.5,2.9c0,0,4.9,11.8,4.7,14.4
		c0,0.8-0.7,1.5-1.5,1.5l0,0c-1.4,0.1-2.8-0.7-3.4-2l-6.9-13.4c0,0-5.4-1.3-7.2-3.1s-4.7-5.1-4.7-5.1l-3.4-0.5
		c-0.4,0.1-0.8,0-1.2-0.2c-1.8-0.9-3.1-2.6-3.4-4.6l-1.7-9C228.8,234.9,229.2,230.1,229.6,225.8z"/>
	<path class="st7" d="M245.3,249.1c1,3.9,2.9,7.5,5.7,10.4c0.1-0.1-1.5-2.2-3-5.1S245.4,249.1,245.3,249.1z"/>
	<path class="st7" d="M237.2,248.1c-0.2,0.1,0.4,1.5,1.5,2.9c0.6,0.9,1.3,1.8,2.2,2.5c-0.4-1-1-2-1.7-2.8
		C238.6,249.8,238,248.9,237.2,248.1z"/>
	<path class="st7" d="M259.1,261.6c-0.2-1.1-0.6-2.2-0.9-3.3c-0.6-2-1.4-4.8-2.2-7.9c-0.4-1.6-0.7-3-1-4.4c-0.3-1.2-0.4-2.4-0.4-3.6
		c0.1-1.1,0.6-2.1,1.3-3c0,0-0.3,0.1-0.7,0.6c-0.5,0.7-0.9,1.5-1,2.4c-0.1,1.3-0.1,2.5,0.2,3.8c0.3,1.4,0.6,2.9,1,4.4
		c0.8,3.1,1.6,5.9,2.3,7.9C258.1,259.6,258.6,260.6,259.1,261.6z"/>
	<path class="st7" d="M255.5,241.7c-0.1,0.1,0.5,0.7,1.2,1.9c0.9,1.5,1.4,3.2,1.5,5c0,1,0.1,2,0.2,3c0.2,0.8,0.6,1.6,1.3,2.2
		c0.5,0.6,1.2,1,1.9,1.3c0.1-0.1-0.7-0.6-1.6-1.5c-0.5-0.6-0.9-1.3-1-2c-0.1-1-0.2-1.9-0.2-2.9c-0.1-1.8-0.7-3.6-1.7-5.2
		C256.6,242.7,256.1,242.1,255.5,241.7z"/>
	<path class="st7" d="M251.6,223.6c0.1-0.1-1.9-1.8-3.8-4.2s-3.2-4.6-3.4-4.5c0.2,0.5,0.4,1,0.7,1.5c0.7,1.2,1.4,2.3,2.3,3.3
		C248.5,221.3,249.9,222.6,251.6,223.6z"/>
	<g class="st2">
		<polygon points="424.6,223.4 425.2,208.4 414.6,223.4 		"/>
	</g>
	<path class="st5" d="M424.5,223.4c-0.1-3,0-6,0.2-8.9c0.1-3,0.3-5.9,0.8-8.9c0.1,3,0,6-0.2,8.9C425.2,217.5,425,220.5,424.5,223.4z
		"/>
	<path class="st4" d="M421.3,170.8c0.2,0.3,0.2,0.7,0.3,1c0.1,1-0.2,2-0.7,2.8c-0.8,1.3-2.2,2.3-3.7,2.7c-2,0.5-4,0.7-6,0.5
		c-1.2,0-2.3,0-3.5,0.2s-2.4,0.6-3.5,1.2c-1.1,0.8-2,1.8-2.5,3c-0.6,1.3-1,2.7-1.3,4.1c-0.3,1.4-0.6,2.9-1.1,4.4
		c-1.4,5-5.8,8.5-11,8.8c-3.5,0.2-6.8-1-9.4-3.4c-1.2-1.1-2.2-2.4-2.9-3.8c-0.6-1.3-1.6-2.5-2.9-3.3c-1.2-0.6-2.7-0.9-4.1-0.7
		c-1.3,0.1-2.7,0.4-4,0.7s-2.5,0.5-3.8,0.5c-1.2,0-2.4-0.2-3.5-0.6c-1.9-0.7-3.6-1.8-5-3.4c-1-1.1-1.8-2.5-2.4-3.9
		c-0.2-0.5-0.3-1.1-0.5-1.6c0-0.5-0.1-0.9-0.1-1.2V178c0-0.1,0-0.2,0-0.2c0,1.3,0.3,2.6,0.8,3.8c0.5,1.4,1.3,2.7,2.4,3.8
		c1.3,1.5,3,2.6,4.9,3.2c1.1,0.4,2.2,0.5,3.4,0.5c1.3-0.1,2.5-0.2,3.7-0.5c1.3-0.3,2.7-0.6,4-0.7c1.5-0.2,3,0.1,4.3,0.8
		c1.3,0.9,2.4,2,3.1,3.4s1.7,2.6,2.9,3.7c2.5,2.2,5.7,3.4,9,3.2s6.3-1.8,8.4-4.4c2.1-2.4,2.6-5.6,3.2-8.5c0.3-1.4,0.7-2.8,1.3-4.2
		c0.6-1.3,1.5-2.4,2.7-3.2c1.1-0.7,2.4-1.1,3.7-1.3c1.2-0.1,2.4-0.2,3.5-0.1c2,0.2,4,0,6-0.4c1.5-0.4,2.7-1.3,3.6-2.5
		c0.6-0.8,0.8-1.7,0.8-2.7C421.5,171.5,421.4,171.1,421.3,170.8z"/>
	<path class="st4" d="M372.7,222.3c-0.1-0.2-0.2-0.4-0.2-0.7l-0.5-2c-0.6-2.4-1.6-4.7-3-6.9c-0.5-0.7-1-1.3-1.6-1.9
		c-0.7-0.6-1.4-1.1-2.2-1.5c-1.8-0.8-3.7-1.2-5.7-1c-2.2,0.2-4.3,0.6-6.5,1.1c-2.3,0.6-4.7,0.9-7.1,0.9c-2.5,0-4.8-0.8-6.7-2.5
		c-1.6-1.7-2.5-3.8-2.6-6.1c-0.1-2-0.1-4,0.1-6c0.2-1.7,0.2-3.4,0.1-5.2c-0.1-2.5-1.2-4.9-3.1-6.5c-0.7-0.6-1.5-1-2.4-1.2h0.2
		c0.2,0,0.4,0.1,0.5,0.1c0.7,0.2,1.3,0.5,1.8,0.9c2,1.7,3.2,4.1,3.4,6.7c0.1,1.7,0.1,3.5-0.1,5.2c-0.2,2-0.2,4-0.1,5.9
		c0.1,4.6,3.8,8.3,8.4,8.2c0.2,0,0.3,0,0.5,0c2.4,0,4.7-0.3,7-0.9c2.1-0.6,4.3-0.9,6.5-1.1c2-0.2,4.1,0.2,5.9,1.1
		c0.8,0.4,1.6,1,2.2,1.6s1.1,1.3,1.6,2c1.3,2.2,2.3,4.5,2.9,7c0.2,0.9,0.4,1.5,0.5,2C372.7,221.9,372.7,222.1,372.7,222.3z"/>
	<path class="st4" d="M425.8,209.6c-1.4-0.7-2.9-1.3-4.4-1.7c-1.6-0.4-3.3-0.5-5-0.4c-2.1,0.2-4,0.8-5.9,1.8c-1.8,1-3.4,2.4-4.7,4
		c-1,1.3-1.9,2.8-2.4,4.4c-0.4,1.1-0.5,2.2-0.2,3.3c0.1,0.4,0.3,0.8,0.4,1.2c0,0-0.1-0.1-0.2-0.2c-0.2-0.3-0.3-0.6-0.4-0.9
		c-0.3-1.1-0.3-2.4,0.1-3.5c0.5-1.7,1.3-3.2,2.4-4.6c1.3-1.7,2.9-3.1,4.8-4.1s3.9-1.7,6.1-1.8c1.7-0.1,3.5,0,5.1,0.5
		c1.1,0.3,2.2,0.7,3.2,1.3c0.4,0.2,0.6,0.4,0.8,0.5S425.8,209.6,425.8,209.6z"/>
	<path class="st4" d="M436.6,182.6c0,0-0.4-0.4-0.6-1.2c-0.3-1.1-0.4-2.2-0.1-3.3c0.2-1.1,0.7-2.2,1.4-3.1c0.5-0.7,1-1,1-0.9
		C436.2,176.4,435.6,179.6,436.6,182.6L436.6,182.6z"/>
	<path class="st4" d="M461,202.4c0,0.2-0.1,0.3-0.1,0.4c-0.1,0.4-0.3,0.8-0.5,1.2c-0.7,1.4-1.7,2.7-2.9,3.8c-1.8,1.6-4,2.6-6.4,2.9
		c-2.7,0.4-5.6-0.5-8.5-1.2c-1.4-0.4-2.9-0.6-4.3-0.7c-1.4,0-2.7,0.2-4,0.6c-2.2,0.7-4.1,2-5.7,3.7c-1.1,1.1-1.9,2.5-2.5,3.9
		c-0.4,1-0.5,1.6-0.6,1.6c0-0.2,0-0.3,0.1-0.4c0.1-0.4,0.2-0.8,0.3-1.2c0.5-1.5,1.3-2.9,2.4-4.1c1.6-1.8,3.6-3.1,5.8-3.9
		c1.3-0.5,2.7-0.7,4.1-0.7c1.5,0.1,3,0.3,4.4,0.7c2.9,0.7,5.7,1.6,8.3,1.2c2.3-0.3,4.4-1.2,6.2-2.7c1.2-1,2.2-2.2,2.9-3.6
		C460.8,203,461,202.4,461,202.4z"/>
	<path class="st4" d="M327.3,220.7c-0.1,0-0.2,0-0.4,0c-0.3,0-0.7,0-1,0c-1.2-0.1-2.5-0.4-3.6-0.9c-1.7-0.8-3.1-2-4.2-3.6
		c-0.6-0.9-1.1-1.9-1.4-3s-0.5-2.3-0.6-3.4c-0.3-2.3-0.6-4.6-2-6.1c-1.2-1.3-2.8-2.2-4.6-2.4c-1.2-0.2-2.4-0.3-3.6-0.4
		c-0.5,0-0.9,0-1.4-0.1c0.4-0.1,0.9-0.1,1.4-0.1c1.2,0,2.5,0,3.7,0.2c1.9,0.2,3.6,1.1,4.9,2.5c0.7,0.9,1.2,1.9,1.5,2.9
		c0.3,1.1,0.5,2.3,0.6,3.4c0.1,1.1,0.3,2.3,0.6,3.4c0.3,1,0.7,2,1.3,2.9c1,1.5,2.4,2.7,4,3.5C324,220.1,325.6,220.6,327.3,220.7z"/>
</g>
<g id="freepik--Cursor--inject-2">
	<path class="st0" d="M368.8,390.8c1.5,2.8,2.5,5.8,2.9,9h5.3l22.5-0.4l-0.2,0.4c0,0,3.7-17.3,4.4-22.4c0.5-4.2,3.2-14.4,0-18.9
		c-1.2-1.6-3.2-2.3-5.1-1.7c-1.3,0.4-2.3,1.5-2.6,2.8c0,0-0.3-6-4.6-6.1s-4.5,3.3-4.5,3.3s-1.2-6.9-6-6.8c-1.9,0.2-3.5,1.5-4,3.3
		v-13c0-2.6-2-4.8-4.7-5c-2.7-0.1-4.9,2-5,4.7v0.1l-0.3,30.1l-7.3-9.4c-1.9-2.4-6.5-1.2-7,0.9c0,0-1.3,2.8,1.4,6.8
		C356,371.5,368.8,390.8,368.8,390.8z"/>
	<path class="st5" d="M368.8,390.8c0,0-0.1-0.2-0.4-0.5l-1-1.4l-3.8-5.6l-5.9-8.9l-3.7-5.6c-0.7-1-1.3-2.1-1.6-3.3
		c-0.4-1.3-0.4-2.6,0-3.9l0,0c0.3-0.8,0.9-1.4,1.6-1.7c0.7-0.4,1.5-0.6,2.4-0.6s1.7,0.1,2.4,0.6c0.2,0.1,0.4,0.2,0.5,0.4
		c0.2,0.1,0.3,0.3,0.5,0.5l0.8,1l6.5,8.4l-0.4,0.1c0.1-8.4,0.2-17.6,0.3-27.4V341c0-0.6,0-1.3,0.1-1.9c0.3-1.3,1.1-2.4,2.2-3.2
		c2.3-1.5,5.4-0.8,6.9,1.5l0.1,0.1c0.4,0.6,0.6,1.2,0.7,1.9c0.1,0.7,0.1,1.3,0.1,2v11.9l-0.5-0.1c0.4-1.2,1.1-2.2,2.2-2.9
		c0.5-0.3,0.9-0.5,1.5-0.6c0.3-0.1,0.5-0.1,0.8-0.1s0.5,0,0.8,0.1c1,0.2,2,0.8,2.7,1.5c1.3,1.5,2.2,3.4,2.5,5.4h-0.5
		c0.1-1.4,1-2.5,2.2-3.1c0.6-0.3,1.2-0.4,1.9-0.4c0.3,0,0.7,0,1,0l0.5,0.1l0.5,0.1c1.2,0.4,2.2,1.4,2.7,2.6c0.5,1.1,0.8,2.3,0.9,3.5
		h-0.5c0.3-1.3,1.2-2.4,2.4-2.9c1.2-0.5,2.6-0.4,3.7,0.1c0.6,0.2,1.1,0.6,1.6,1.1c0.4,0.5,0.7,1,1,1.5c0.5,1.1,0.8,2.3,0.9,3.5
		c0.4,4.8-0.6,9.3-1.3,13.5s-1.5,8.4-2.2,12.3s-1.6,7.6-2.3,11.1l-0.4-0.1l0.2-0.4l0.2,0.3l-22.5,0.3l0.1-0.1l0,0v0.1l0,0h-5.4h-0.1
		v-0.1c-0.3-2.3-0.9-4.6-1.8-6.7c-0.3-0.7-0.6-1.3-0.8-1.7S368.7,390.8,368.8,390.8c0.4,0.7,0.8,1.4,1.1,2.2
		c0.9,2.2,1.6,4.4,1.9,6.8l-0.1-0.1h5.4l-0.1,0.1l0,0v-0.1h0.1l22.5-0.5h0.3l-0.1,0.3l-0.2,0.4l-0.4-0.1c0.7-3.5,1.5-7.2,2.3-11.1
		s1.6-8,2.2-12.3s1.7-8.8,1.2-13.4c-0.1-1.1-0.4-2.3-0.9-3.3c-0.3-0.5-0.6-1-1-1.4s-0.9-0.8-1.4-1c-1.1-0.5-2.3-0.5-3.4-0.1
		s-1.9,1.4-2.1,2.5l-0.4,1.7l-0.1-1.8c-0.1-1.2-0.4-2.3-0.8-3.3c-0.4-1.1-1.3-1.9-2.4-2.3c-1.1-0.3-2.3-0.2-3.4,0.2
		c-1.1,0.5-1.8,1.5-1.9,2.6l-0.2,1.7l-0.4-1.7c-0.3-1.9-1.2-3.6-2.4-5.1c-1.2-1.5-3.4-1.9-5-0.9c-1,0.6-1.7,1.5-2,2.6l-0.5,1.6
		v-13.6c0-0.6,0-1.3-0.1-1.9s-0.3-1.2-0.7-1.7c-0.6-1-1.7-1.8-2.9-2.1c-2.5-0.5-4.9,1-5.4,3.5c-0.1,0.6-0.1,1.2-0.1,1.8v1.9
		c-0.1,9.8-0.3,19-0.4,27.4v0.6l-0.4-0.5l-6.5-8.3c-0.4-0.7-1-1.3-1.6-1.8c-0.7-0.4-1.5-0.6-2.2-0.5c-0.8,0-1.5,0.2-2.2,0.5
		s-1.2,0.8-1.4,1.5l0,0l0,0c-0.4,1.2-0.4,2.5,0,3.7c0.3,1.2,0.9,2.2,1.6,3.2l3.7,5.6l5.9,8.9l3.7,5.6c0.4,0.6,0.7,1.1,1,1.5
		S368.8,390.8,368.8,390.8z"/>
	<path class="st0" d="M371.6,399.4h28.2c2.1,0,3.9,1.7,3.9,3.9v0.3c0,2.1-1.7,3.9-3.9,3.9h-28.2c-2.1,0-3.9-1.7-3.9-3.9v-0.3
		C367.8,401.1,369.5,399.4,371.6,399.4z"/>
	<path class="st5" d="M399.9,407.4c0,0,0.3,0,0.8-0.1c0.8-0.2,1.5-0.6,2-1.2c0.4-0.4,0.6-0.9,0.8-1.4c0.2-0.7,0.2-1.3,0.1-2
		c-0.3-1.6-1.5-2.9-3.2-3.1h-28.7c-1.3,0-2.5,0.7-3.2,1.9c-0.3,0.6-0.4,1.2-0.4,1.8c-0.1,1.9,1.4,3.6,3.3,3.8c1.2,0,2.5,0,3.7,0
		l12.9,0.1l8.7,0.1h2.4c0.3,0,0.6,0,0.8,0c-0.3,0-0.6,0.1-0.8,0h-2.4l-8.7,0.1l-12.9,0.1c-1.2,0-2.4,0-3.8,0c-1.4-0.1-2.6-1-3.3-2.2
		c-1.1-2.1-0.3-4.7,1.8-5.8c0.6-0.3,1.3-0.5,1.9-0.5c11.2,0,21.4,0,28.8,0.1c1.8,0.3,3.2,1.6,3.4,3.4c0.1,0.7,0,1.4-0.1,2.1
		c-0.2,0.6-0.5,1.1-0.9,1.5c-0.6,0.6-1.3,1-2.1,1.1C400.4,407.4,400.2,407.4,399.9,407.4z"/>
	<path class="st5" d="M376.8,364.3c-0.3-3.9-0.3-7.8,0-11.6C377.1,356.6,377.1,360.5,376.8,364.3z"/>
	<path class="st5" d="M386.8,363.5c-0.3-2.3-0.3-4.6,0-6.9C387.2,358.9,387.2,361.3,386.8,363.5z"/>
	<path class="st5" d="M396,366.5c-0.4-2.3-0.4-4.6,0-6.9C396.3,361.8,396.3,364.2,396,366.5z"/>
	<path class="st5" d="M365.3,334.9c-1.9-0.7-3.7-1.5-5.5-2.5c-1.8-0.8-3.6-1.8-5.3-3C358.2,330.9,361.9,332.7,365.3,334.9
		L365.3,334.9z"/>
	<path class="st5" d="M370.2,332.1c-0.7-2.5-1.1-5.1-1.5-7.6c-0.5-2.5-0.8-5.1-1-7.7c0.7,2.5,1.2,5.1,1.5,7.6
		C369.7,327,370,329.5,370.2,332.1z"/>
	<path class="st5" d="M376.2,332.8c1-1.9,2.1-3.6,3.4-5.3c1.1-1.8,2.4-3.4,3.8-5C381.3,326.1,378.9,329.6,376.2,332.8L376.2,332.8z"
		/>
</g>
<text transform="matrix(0.903 0 0 1 488.549 309.5859)" class="st4 st9 st10">r</text>
</svg>
