<svg xmlns="http://www.w3.org/2000/svg" width="43.21" height="41.07" viewBox="0 0 43.21 41.07">
  <path id="telegram-1" d="M33.1,43.616a1.923,1.923,0,0,0,1.993.3,2.317,2.317,0,0,0,1.3-1.725c1.565-8.386,5.36-29.613,6.784-37.242a1.738,1.738,0,0,0-.468-1.557A1.305,1.305,0,0,0,41.276,3.1C33.727,6.29,10.479,16.239.976,20.249A1.71,1.71,0,0,0,0,21.89a1.679,1.679,0,0,0,1.068,1.569c4.261,1.454,9.855,3.477,9.855,3.477s2.614,9,3.977,13.584A1.689,1.689,0,0,0,15.986,41.7a1.427,1.427,0,0,0,1.46-.425l5.574-6s6.431,5.378,10.079,8.341ZM13.276,25.8,16.3,37.17l.672-7.2L35.308,11.105a.628.628,0,0,0,.059-.774.471.471,0,0,0-.677-.131L13.276,25.8Z" transform="translate(0 -3)" fill-rule="evenodd"/>
</svg>
